<svg xmlns="http://www.w3.org/2000/svg" style="display:none"><symbol id="email" viewBox="0 0 24 24"><rect width="24" height="24" rx="4" fill="#e9f6ff"/><path d="M4 7l8 6 8-6" fill="none" stroke="#004c6d" stroke-width="1.2" stroke-linecap="round" stroke-linejoin="round"/></symbol><symbol id="doc" viewBox="0 0 24 24"><rect width="24" height="24" rx="4" fill="#e9f6ff"/><path d="M6 2h7l5 5v11a2 2 0 0 1-2 2H6a2 2 0 0 1-2-2V4a2 2 0 0 1 2-2z" fill="#9dd7ff"/><path d="M8 12h8M8 15h8M8 18h6" stroke="#004c6d" stroke-width="1" fill="none" stroke-linecap="round"/></symbol><symbol id="folder" viewBox="0 0 24 24"><rect width="24" height="24" rx="4" fill="#e9f6ff"/><path d="M3 7a1 1 0 0 1 1-1h4l2 2h8a1 1 0 0 1 1 1v7a1 1 0 0 1-1 1H4a1 1 0 0 1-1-1V7z" fill="#d0f0e8"/></symbol><symbol id="audio" viewBox="0 0 24 24"><rect width="24" height="24" rx="4" fill="#e9f6ff"/><path d="M3 9v6h3l4 3V6L6 9H3z" fill="#cfeef8"/><path d="M16 8a4 4 0 010 8" stroke="#004c6d" stroke-width="1.2" fill="none" stroke-linecap="round"/></symbol><symbol id="quiz" viewBox="0 0 24 24"><rect width="24" height="24" rx="4" fill="#e9f6ff"/><circle cx="12" cy="12" r="9" fill="#e9f6ff"/><text x="12" y="16" text-anchor="middle" font-size="12" fill="#004c6d" font-family="Arial">?</text></symbol><symbol id="game" viewBox="0 0 24 24"><rect width="24" height="24" rx="4" fill="#e9f6ff"/><rect x="7" y="7" width="10" height="4" fill="#dff7ed"/><rect x="10" y="14" width="4" height="4" fill="#cfeaff"/></symbol><symbol id="match" viewBox="0 0 24 24"><rect width="24" height="24" rx="4" fill="#e9f6ff"/><path d="M10 14l-4 4a4 4 0 01-5-5l4-4" stroke="#004c6d" stroke-width="1.2" fill="none" stroke-linecap="round"/></symbol><symbol id="keyboard" viewBox="0 0 24 24"><rect width="24" height="24" rx="4" fill="#e9f6ff"/><rect x="3" y="7" width="18" height="10" rx="1" fill="#dff7ed"/><path d="M6 10h2M10 10h8M6 14h12" stroke="#004c6d" stroke-width="1" fill="none" stroke-linecap="round"/></symbol><symbol id="search" viewBox="0 0 24 24"><rect width="24" height="24" rx="4" fill="#e9f6ff"/><path d="M11 4a7 7 0 100 14 7 7 0 000-14zm7.5 13.5L21 19" stroke="#004c6d" stroke-width="1.2" fill="none" stroke-linecap="round"/></symbol><symbol id="default" viewBox="0 0 24 24"><rect width="24" height="24" rx="4" fill="#e9f6ff"/><text x="12" y="16" text-anchor="middle" font-size="12" fill="#004c6d" font-family="Arial">P</text></symbol></svg>
