<svg xmlns="http://www.w3.org/2000/svg" style="display:none"><symbol id="email" viewBox="0 0 24 24"><path d="M4 7h16v10H4z" fill="none" stroke="currentColor" stroke-width="1.7" stroke-linejoin="round"/><path d="M4 8l8 6 8-6" fill="none" stroke="currentColor" stroke-width="1.7" stroke-linecap="round" stroke-linejoin="round"/></symbol><symbol id="doc" viewBox="0 0 24 24"><path d="M7 3h7l3 3v14a2 2 0 0 1-2 2H7a2 2 0 0 1-2-2V5a2 2 0 0 1 2-2z" fill="none" stroke="currentColor" stroke-width="1.7" stroke-linejoin="round"/><path d="M14 3v4h4" fill="none" stroke="currentColor" stroke-width="1.7" stroke-linejoin="round"/><path d="M8 12h8M8 15h8M8 18h6" fill="none" stroke="currentColor" stroke-width="1.7" stroke-linecap="round"/></symbol><symbol id="folder" viewBox="0 0 24 24"><path d="M3.5 7.5A2.5 2.5 0 0 1 6 5h4l2 2h6a2.5 2.5 0 0 1 2.5 2.5V18A3 3 0 0 1 17.5 21h-11A3 3 0 0 1 3.5 18z" fill="none" stroke="currentColor" stroke-width="1.7" stroke-linejoin="round"/></symbol><symbol id="audio" viewBox="0 0 24 24"><path d="M6.5 12a3.5 3.5 0 0 1 3.5-3.5h2A3.5 3.5 0 0 1 15.5 12v6.2a1.8 1.8 0 0 1-1.8 1.8h-.7V13h-2v7h-.7a1.8 1.8 0 0 1-1.8-1.8z" fill="none" stroke="currentColor" stroke-width="1.7" stroke-linejoin="round"/><path d="M8 12V7.8A4 4 0 0 1 12 3.8a4 4 0 0 1 4 4V12" fill="none" stroke="currentColor" stroke-width="1.7" stroke-linecap="round"/></symbol><symbol id="quiz" viewBox="0 0 24 24"><path d="M12 21a9 9 0 1 1 9-9 9 9 0 0 1-9 9z" fill="none" stroke="currentColor" stroke-width="1.7"/><path d="M10.5 9.2a2.2 2.2 0 1 1 3.8 1.5c-.8.8-1.6 1.1-1.6 2.3" fill="none" stroke="currentColor" stroke-width="1.7" stroke-linecap="round"/><path d="M12 16.8h.01" fill="none" stroke="currentColor" stroke-width="2.4" stroke-linecap="round"/></symbol><symbol id="game" viewBox="0 0 24 24"><path d="M7 11h10a4 4 0 0 1 4 4v1.2A3.8 3.8 0 0 1 17.2 20H6.8A3.8 3.8 0 0 1 3 16.2V15a4 4 0 0 1 4-4z" fill="none" stroke="currentColor" stroke-width="1.7" stroke-linejoin="round"/><path d="M8.2 14.2h3.2M9.8 12.6v3.2" fill="none" stroke="currentColor" stroke-width="1.7" stroke-linecap="round"/><path d="M15.7 13.9h.01M17.6 15.1h.01" fill="none" stroke="currentColor" stroke-width="2.6" stroke-linecap="round"/></symbol><symbol id="match" viewBox="0 0 24 24"><path d="M7.5 3.8h2.6a2.6 2.6 0 0 1 2.6 2.6V9H10.1a2.6 2.6 0 0 0-2.6 2.6v.8H4.8A2.6 2.6 0 0 1 2.2 9.8V6.4a2.6 2.6 0 0 1 2.6-2.6z" fill="none" stroke="currentColor" stroke-width="1.7" stroke-linejoin="round"/><path d="M16.5 20.2h-2.6a2.6 2.6 0 0 1-2.6-2.6V15h2.6a2.6 2.6 0 0 0 2.6-2.6v-.8h2.6a2.6 2.6 0 0 1 2.6 2.6v3.4a2.6 2.6 0 0 1-2.6 2.6z" fill="none" stroke="currentColor" stroke-width="1.7" stroke-linejoin="round"/></symbol><symbol id="keyboard" viewBox="0 0 24 24"><path d="M4 8a3 3 0 0 1 3-3h10a3 3 0 0 1 3 3v8a3 3 0 0 1-3 3H7a3 3 0 0 1-3-3z" fill="none" stroke="currentColor" stroke-width="1.7"/><path d="M7.2 10.2h.01M10 10.2h.01M12.8 10.2h.01M15.6 10.2h.01M7.2 13h.01M10 13h.01M12.8 13h.01M15.6 13h.01" fill="none" stroke="currentColor" stroke-width="2.6" stroke-linecap="round"/><path d="M8 16h8" fill="none" stroke="currentColor" stroke-width="1.7" stroke-linecap="round"/></symbol><symbol id="search" viewBox="0 0 24 24"><path d="M10.8 18.6a7.8 7.8 0 1 1 7.8-7.8 7.8 7.8 0 0 1-7.8 7.8z" fill="none" stroke="currentColor" stroke-width="1.7"/><path d="M16.6 16.6 21 21" fill="none" stroke="currentColor" stroke-width="1.7" stroke-linecap="round"/></symbol><symbol id="clock" viewBox="0 0 24 24"><path d="M12 21a9 9 0 1 1 9-9 9 9 0 0 1-9 9z" fill="none" stroke="currentColor" stroke-width="1.7"/><path d="M12 7v5l3 2" fill="none" stroke="currentColor" stroke-width="1.7" stroke-linecap="round" stroke-linejoin="round"/></symbol><symbol id="mouse" viewBox="0 0 24 24"><path d="M12 2a7 7 0 0 1 7 7v6a7 7 0 0 1-14 0V9a7 7 0 0 1 7-7z" fill="none" stroke="currentColor" stroke-width="1.7"/><path d="M12 6v3" fill="none" stroke="currentColor" stroke-width="1.7" stroke-linecap="round"/></symbol><symbol id="compass" viewBox="0 0 24 24"><path d="M12 21a9 9 0 1 1 9-9 9 9 0 0 1-9 9z" fill="none" stroke="currentColor" stroke-width="1.7"/><path d="M14.8 9.2 13 13l-3.8 1.8L11 11z" fill="none" stroke="currentColor" stroke-width="1.7" stroke-linejoin="round"/></symbol><symbol id="image" viewBox="0 0 24 24"><path d="M5 6a3 3 0 0 1 3-3h8a3 3 0 0 1 3 3v12a3 3 0 0 1-3 3H8a3 3 0 0 1-3-3z" fill="none" stroke="currentColor" stroke-width="1.7"/><path d="M8 16l3-3 2 2 3-3 2 2" fill="none" stroke="currentColor" stroke-width="1.7" stroke-linecap="round" stroke-linejoin="round"/><path d="M9.2 9.2h.01" fill="none" stroke="currentColor" stroke-width="2.8" stroke-linecap="round"/></symbol><symbol id="building" viewBox="0 0 24 24"><path d="M6 21V5a2 2 0 0 1 2-2h8a2 2 0 0 1 2 2v16" fill="none" stroke="currentColor" stroke-width="1.7" stroke-linejoin="round"/><path d="M9 7h.01M12 7h.01M15 7h.01M9 11h.01M12 11h.01M15 11h.01M9 15h.01M12 15h.01M15 15h.01" fill="none" stroke="currentColor" stroke-width="2.6" stroke-linecap="round"/><path d="M4 21h16" fill="none" stroke="currentColor" stroke-width="1.7" stroke-linecap="round"/></symbol><symbol id="check" viewBox="0 0 24 24"><path d="M12 21a9 9 0 1 1 9-9 9 9 0 0 1-9 9z" fill="none" stroke="currentColor" stroke-width="1.7"/><path d="M8.2 12.1 11 14.9 16 9.9" fill="none" stroke="currentColor" stroke-width="1.9" stroke-linecap="round" stroke-linejoin="round"/></symbol><symbol id="sparkles" viewBox="0 0 24 24"><path d="M12 2l1.4 6.1L20 9.5l-6.1 1.4L12 17l-1.9-6.1L4 9.5l6.6-1.4z" fill="none" stroke="currentColor" stroke-width="1.7" stroke-linejoin="round"/><path d="M19 3.5l.6 2.3 2.3.6-2.3.6-.6 2.3-.6-2.3-2.3-.6 2.3-.6z" fill="none" stroke="currentColor" stroke-width="1.5" stroke-linejoin="round"/></symbol><symbol id="chat" viewBox="0 0 24 24"><path d="M6 18.5a6.8 6.8 0 0 1-3 1V17a7.8 7.8 0 0 1-1-3.8C2 8.1 6.4 4 12 4s10 4.1 10 9.2S17.6 22.4 12 22.4a12.7 12.7 0 0 1-6-1.9z" fill="none" stroke="currentColor" stroke-width="1.7" stroke-linejoin="round"/><path d="M7.8 12h8.4" fill="none" stroke="currentColor" stroke-width="1.7" stroke-linecap="round"/></symbol><symbol id="form" viewBox="0 0 24 24"><path d="M7 3h10a3 3 0 0 1 3 3v12a3 3 0 0 1-3 3H7a3 3 0 0 1-3-3V6a3 3 0 0 1 3-3z" fill="none" stroke="currentColor" stroke-width="1.7"/><path d="M8 8h8M8 12h8M8 16h5" fill="none" stroke="currentColor" stroke-width="1.7" stroke-linecap="round"/><path d="M16.5 15.5l1 1 2-2" fill="none" stroke="currentColor" stroke-width="1.7" stroke-linecap="round" stroke-linejoin="round"/></symbol><symbol id="factory" viewBox="0 0 24 24"><path d="M4 21V10l5 3V10l5 3V9l6 3v9" fill="none" stroke="currentColor" stroke-width="1.7" stroke-linejoin="round"/><path d="M6 21V5h4v16" fill="none" stroke="currentColor" stroke-width="1.7" stroke-linejoin="round"/><path d="M14 21v-4h3v4" fill="none" stroke="currentColor" stroke-width="1.7" stroke-linejoin="round"/></symbol><symbol id="wand" viewBox="0 0 24 24"><path d="M4 20 16.5 7.5" fill="none" stroke="currentColor" stroke-width="1.7" stroke-linecap="round"/><path d="M14.5 5.5 18.5 9.5" fill="none" stroke="currentColor" stroke-width="1.7" stroke-linecap="round"/><path d="M18 4.2l.6 2.1 2.1.6-2.1.6-.6 2.1-.6-2.1-2.1-.6 2.1-.6zM8.2 6.8l.5 1.6 1.6.5-1.6.5-.5 1.6-.5-1.6-1.6-.5 1.6-.5z" fill="none" stroke="currentColor" stroke-width="1.4" stroke-linejoin="round"/></symbol><symbol id="link" viewBox="0 0 24 24"><path d="M10 13.9l-1 1a4 4 0 1 1-5.7-5.6l1.8-1.8A4 4 0 0 1 10.8 6" fill="none" stroke="currentColor" stroke-width="1.7" stroke-linecap="round"/><path d="M14 10.1l1-1a4 4 0 1 1 5.7 5.6l-1.8 1.8A4 4 0 0 1 13.2 18" fill="none" stroke="currentColor" stroke-width="1.7" stroke-linecap="round"/><path d="M9.5 12.5h5" fill="none" stroke="currentColor" stroke-width="1.7" stroke-linecap="round"/></symbol><symbol id="cards" viewBox="0 0 24 24"><path d="M7 7h12a3 3 0 0 1 3 3v8a3 3 0 0 1-3 3H7a3 3 0 0 1-3-3V10a3 3 0 0 1 3-3z" fill="none" stroke="currentColor" stroke-width="1.7"/><path d="M6 5h12" fill="none" stroke="currentColor" stroke-width="1.7" stroke-linecap="round"/><path d="M7.8 12.2h.01M11 12.2h.01M14.2 12.2h.01" fill="none" stroke="currentColor" stroke-width="2.6" stroke-linecap="round"/></symbol><symbol id="mic" viewBox="0 0 24 24"><path d="M12 14a3 3 0 0 0 3-3V7a3 3 0 0 0-6 0v4a3 3 0 0 0 3 3z" fill="none" stroke="currentColor" stroke-width="1.7"/><path d="M6 11a6 6 0 0 0 12 0" fill="none" stroke="currentColor" stroke-width="1.7" stroke-linecap="round"/><path d="M12 17v4" fill="none" stroke="currentColor" stroke-width="1.7" stroke-linecap="round"/><path d="M9 21h6" fill="none" stroke="currentColor" stroke-width="1.7" stroke-linecap="round"/></symbol><symbol id="theater" viewBox="0 0 24 24"><path d="M5 4h14v7a7 7 0 0 1-14 0z" fill="none" stroke="currentColor" stroke-width="1.7" stroke-linejoin="round"/><path d="M8 9c.6-.7 1.4-1 2.2-1s1.6.3 2.2 1" fill="none" stroke="currentColor" stroke-width="1.7" stroke-linecap="round"/><path d="M10 12c.6.6 1.4.9 2.2.9s1.6-.3 2.2-.9" fill="none" stroke="currentColor" stroke-width="1.7" stroke-linecap="round"/><path d="M8 20h8" fill="none" stroke="currentColor" stroke-width="1.7" stroke-linecap="round"/></symbol><symbol id="tools" viewBox="0 0 24 24"><path d="M14.2 7.3a4.6 4.6 0 0 0-6 6L3.7 17.8a2 2 0 1 0 2.8 2.8l4.5-4.5a4.6 4.6 0 0 0 6-6l-2.2 2.2-2.6-2.6z" fill="none" stroke="currentColor" stroke-width="1.7" stroke-linejoin="round"/></symbol><symbol id="book" viewBox="0 0 24 24"><path d="M4.5 6.2A3.2 3.2 0 0 1 7.7 3H20v17.5H7.7a3.2 3.2 0 0 0-3.2 3.2z" fill="none" stroke="currentColor" stroke-width="1.7" stroke-linejoin="round"/><path d="M4.5 6.2V21" fill="none" stroke="currentColor" stroke-width="1.7" stroke-linecap="round"/><path d="M9 7h7" fill="none" stroke="currentColor" stroke-width="1.7" stroke-linecap="round"/></symbol><symbol id="pen" viewBox="0 0 24 24"><path d="M4 20l4.6-1 10.8-10.8a2.2 2.2 0 0 0 0-3.1l-.5-.5a2.2 2.2 0 0 0-3.1 0L5 15.4z" fill="none" stroke="currentColor" stroke-width="1.7" stroke-linejoin="round"/><path d="M14.2 5.8l4 4" fill="none" stroke="currentColor" stroke-width="1.7" stroke-linecap="round"/></symbol><symbol id="default" viewBox="0 0 24 24"><path d="M12 21a9 9 0 1 1 9-9 9 9 0 0 1-9 9z" fill="none" stroke="currentColor" stroke-width="1.7"/><path d="M10 10.5h2.3a2.7 2.7 0 0 1 0 5.4H10V8.1h2.3" fill="none" stroke="currentColor" stroke-width="1.7" stroke-linecap="round"/></symbol></svg>
